<?xml version="1.0" encoding="UTF-8" standalone="no"?>
<!DOCTYPE svg PUBLIC "-//W3C//DTD SVG 1.1//EN"
 "http://www.w3.org/Graphics/SVG/1.1/DTD/svg11.dtd">
<!-- Generated by graphviz version 5.0.0 (20220707.1540)
 -->
<!-- Title: dependencies Pages: 1 -->
<svg width="2015pt" height="247pt"
 viewBox="0.00 0.00 2015.00 246.80" xmlns="http://www.w3.org/2000/svg" xmlns:xlink="http://www.w3.org/1999/xlink">
<g id="graph0" class="graph" transform="scale(1 1) rotate(0) translate(4 242.8)">
<title>dependencies</title>
<polygon fill="white" stroke="transparent" points="-4,4 -4,-242.8 2011,-242.8 2011,4 -4,4"/>
<text text-anchor="middle" x="1003.5" y="-8.2" font-family="sans-serif" font-size="14.00">dependencies</text>
<g id="clust1" class="cluster">
<title>cluster_AppModule</title>
<polygon fill="none" stroke="black" stroke-dasharray="1,5" points="8,-32.8 8,-230.8 1999,-230.8 1999,-32.8 8,-32.8"/>
</g>
<g id="clust2" class="cluster">
<title>cluster_AppModule_declarations</title>
<polygon fill="none" stroke="black" points="499,-40.8 499,-92.8 1991,-92.8 1991,-40.8 499,-40.8"/>
</g>
<g id="clust15" class="cluster">
<title>cluster_AppModule_bootstrap</title>
<polygon fill="none" stroke="black" points="986,-170.8 986,-222.8 1110,-222.8 1110,-170.8 986,-170.8"/>
</g>
<g id="clust16" class="cluster">
<title>cluster_AppModule_providers</title>
<polygon fill="none" stroke="black" points="16,-40.8 16,-92.8 491,-92.8 491,-40.8 16,-40.8"/>
</g>
<!-- AppComponent -->
<g id="node1" class="node">
<title>AppComponent</title>
<polygon fill="#ffffb3" stroke="black" points="1982.94,-84.8 1877.06,-84.8 1877.06,-48.8 1982.94,-48.8 1982.94,-84.8"/>
<text text-anchor="middle" x="1930" y="-62.6" font-family="Times,serif" font-size="14.00">AppComponent</text>
</g>
<!-- AppModule -->
<g id="node11" class="node">
<title>AppModule</title>
<polygon fill="#8dd3c7" stroke="black" points="1089.66,-149.8 1086.66,-153.8 1065.66,-153.8 1062.66,-149.8 1006.34,-149.8 1006.34,-113.8 1089.66,-113.8 1089.66,-149.8"/>
<text text-anchor="middle" x="1048" y="-127.6" font-family="Times,serif" font-size="14.00">AppModule</text>
</g>
<!-- AppComponent&#45;&gt;AppModule -->
<g id="edge1" class="edge">
<title>AppComponent&#45;&gt;AppModule</title>
<path fill="none" stroke="black" d="M1930,-84.89C1930,-107.93 1930,-144.8 1930,-144.8 1930,-144.8 1099.95,-144.8 1099.95,-144.8"/>
<polygon fill="black" stroke="black" points="1099.95,-141.3 1089.95,-144.8 1099.95,-148.3 1099.95,-141.3"/>
</g>
<!-- FooterComponent -->
<g id="node2" class="node">
<title>FooterComponent</title>
<polygon fill="#ffffb3" stroke="black" points="1858.88,-84.8 1741.12,-84.8 1741.12,-48.8 1858.88,-48.8 1858.88,-84.8"/>
<text text-anchor="middle" x="1800" y="-62.6" font-family="Times,serif" font-size="14.00">FooterComponent</text>
</g>
<!-- FooterComponent&#45;&gt;AppModule -->
<g id="edge2" class="edge">
<title>FooterComponent&#45;&gt;AppModule</title>
<path fill="none" stroke="black" d="M1800,-84.84C1800,-106.46 1800,-139.8 1800,-139.8 1800,-139.8 1099.77,-139.8 1099.77,-139.8"/>
<polygon fill="black" stroke="black" points="1099.77,-136.3 1089.77,-139.8 1099.77,-143.3 1099.77,-136.3"/>
</g>
<!-- LoginFormComponent -->
<g id="node3" class="node">
<title>LoginFormComponent</title>
<polygon fill="#ffffb3" stroke="black" points="1723.61,-84.8 1578.39,-84.8 1578.39,-48.8 1723.61,-48.8 1723.61,-84.8"/>
<text text-anchor="middle" x="1651" y="-62.6" font-family="Times,serif" font-size="14.00">LoginFormComponent</text>
</g>
<!-- LoginFormComponent&#45;&gt;AppModule -->
<g id="edge3" class="edge">
<title>LoginFormComponent&#45;&gt;AppModule</title>
<path fill="none" stroke="black" d="M1651,-85.02C1651,-105.17 1651,-134.8 1651,-134.8 1651,-134.8 1099.92,-134.8 1099.92,-134.8"/>
<polygon fill="black" stroke="black" points="1099.92,-131.3 1089.92,-134.8 1099.92,-138.3 1099.92,-131.3"/>
</g>
<!-- NavBarComponent -->
<g id="node4" class="node">
<title>NavBarComponent</title>
<polygon fill="#ffffb3" stroke="black" points="1560.37,-84.8 1435.63,-84.8 1435.63,-48.8 1560.37,-48.8 1560.37,-84.8"/>
<text text-anchor="middle" x="1498" y="-62.6" font-family="Times,serif" font-size="14.00">NavBarComponent</text>
</g>
<!-- NavBarComponent&#45;&gt;AppModule -->
<g id="edge4" class="edge">
<title>NavBarComponent&#45;&gt;AppModule</title>
<path fill="none" stroke="black" d="M1498,-85.02C1498,-103.63 1498,-129.8 1498,-129.8 1498,-129.8 1099.93,-129.8 1099.93,-129.8"/>
<polygon fill="black" stroke="black" points="1099.93,-126.3 1089.93,-129.8 1099.93,-133.3 1099.93,-126.3"/>
</g>
<!-- Page404Component -->
<g id="node5" class="node">
<title>Page404Component</title>
<polygon fill="#ffffb3" stroke="black" points="1417.55,-84.8 1288.45,-84.8 1288.45,-48.8 1417.55,-48.8 1417.55,-84.8"/>
<text text-anchor="middle" x="1353" y="-62.6" font-family="Times,serif" font-size="14.00">Page404Component</text>
</g>
<!-- Page404Component&#45;&gt;AppModule -->
<g id="edge5" class="edge">
<title>Page404Component&#45;&gt;AppModule</title>
<path fill="none" stroke="black" d="M1353,-84.83C1353,-101.86 1353,-124.8 1353,-124.8 1353,-124.8 1099.77,-124.8 1099.77,-124.8"/>
<polygon fill="black" stroke="black" points="1099.77,-121.3 1089.77,-124.8 1099.77,-128.3 1099.77,-121.3"/>
</g>
<!-- SignInFormComponent -->
<g id="node6" class="node">
<title>SignInFormComponent</title>
<polygon fill="#ffffb3" stroke="black" points="1270.51,-84.8 1121.49,-84.8 1121.49,-48.8 1270.51,-48.8 1270.51,-84.8"/>
<text text-anchor="middle" x="1196" y="-62.6" font-family="Times,serif" font-size="14.00">SignInFormComponent</text>
</g>
<!-- SignInFormComponent&#45;&gt;AppModule -->
<g id="edge6" class="edge">
<title>SignInFormComponent&#45;&gt;AppModule</title>
<path fill="none" stroke="black" d="M1196,-85.04C1196,-100.37 1196,-119.8 1196,-119.8 1196,-119.8 1100.01,-119.8 1100.01,-119.8"/>
<polygon fill="black" stroke="black" points="1100.02,-116.3 1090.01,-119.8 1100.01,-123.3 1100.02,-116.3"/>
</g>
<!-- TodoComponent -->
<g id="node7" class="node">
<title>TodoComponent</title>
<polygon fill="#ffffb3" stroke="black" points="1103.38,-84.8 992.62,-84.8 992.62,-48.8 1103.38,-48.8 1103.38,-84.8"/>
<text text-anchor="middle" x="1048" y="-62.6" font-family="Times,serif" font-size="14.00">TodoComponent</text>
</g>
<!-- TodoComponent&#45;&gt;AppModule -->
<g id="edge7" class="edge">
<title>TodoComponent&#45;&gt;AppModule</title>
<path fill="none" stroke="black" d="M1048,-84.91C1048,-84.91 1048,-103.79 1048,-103.79"/>
<polygon fill="black" stroke="black" points="1044.5,-103.79 1048,-113.79 1051.5,-103.79 1044.5,-103.79"/>
</g>
<!-- TodoDetailsComponent -->
<g id="node8" class="node">
<title>TodoDetailsComponent</title>
<polygon fill="#ffffb3" stroke="black" points="974.04,-84.8 823.96,-84.8 823.96,-48.8 974.04,-48.8 974.04,-84.8"/>
<text text-anchor="middle" x="899" y="-62.6" font-family="Times,serif" font-size="14.00">TodoDetailsComponent</text>
</g>
<!-- TodoDetailsComponent&#45;&gt;AppModule -->
<g id="edge8" class="edge">
<title>TodoDetailsComponent&#45;&gt;AppModule</title>
<path fill="none" stroke="black" d="M899,-85.04C899,-100.37 899,-119.8 899,-119.8 899,-119.8 996.1,-119.8 996.1,-119.8"/>
<polygon fill="black" stroke="black" points="996.1,-123.3 1006.1,-119.8 996.1,-116.3 996.1,-123.3"/>
</g>
<!-- TodoListComponent -->
<g id="node9" class="node">
<title>TodoListComponent</title>
<polygon fill="#ffffb3" stroke="black" points="805.16,-84.8 672.84,-84.8 672.84,-48.8 805.16,-48.8 805.16,-84.8"/>
<text text-anchor="middle" x="739" y="-62.6" font-family="Times,serif" font-size="14.00">TodoListComponent</text>
</g>
<!-- TodoListComponent&#45;&gt;AppModule -->
<g id="edge9" class="edge">
<title>TodoListComponent&#45;&gt;AppModule</title>
<path fill="none" stroke="black" d="M739,-84.83C739,-101.86 739,-124.8 739,-124.8 739,-124.8 996.33,-124.8 996.33,-124.8"/>
<polygon fill="black" stroke="black" points="996.33,-128.3 1006.33,-124.8 996.33,-121.3 996.33,-128.3"/>
</g>
<!-- UserDetailsComponent -->
<g id="node10" class="node">
<title>UserDetailsComponent</title>
<polygon fill="#ffffb3" stroke="black" points="654.92,-84.8 507.08,-84.8 507.08,-48.8 654.92,-48.8 654.92,-84.8"/>
<text text-anchor="middle" x="581" y="-62.6" font-family="Times,serif" font-size="14.00">UserDetailsComponent</text>
</g>
<!-- UserDetailsComponent&#45;&gt;AppModule -->
<g id="edge10" class="edge">
<title>UserDetailsComponent&#45;&gt;AppModule</title>
<path fill="none" stroke="black" d="M581,-85.02C581,-103.63 581,-129.8 581,-129.8 581,-129.8 996.15,-129.8 996.15,-129.8"/>
<polygon fill="black" stroke="black" points="996.15,-133.3 1006.15,-129.8 996.15,-126.3 996.15,-133.3"/>
</g>
<!-- AppComponent  -->
<g id="node12" class="node">
<title>AppComponent </title>
<polygon fill="#80b1d3" stroke="black" points="1102.44,-214.8 993.56,-214.8 993.56,-178.8 1102.44,-178.8 1102.44,-214.8"/>
<text text-anchor="middle" x="1048" y="-192.6" font-family="Times,serif" font-size="14.00">AppComponent </text>
</g>
<!-- AppModule&#45;&gt;AppComponent  -->
<g id="edge11" class="edge">
<title>AppModule&#45;&gt;AppComponent </title>
<path fill="none" stroke="black" stroke-dasharray="1,5" d="M1048,-149.91C1048,-149.91 1048,-168.79 1048,-168.79"/>
<polygon fill="black" stroke="black" points="1044.5,-168.79 1048,-178.79 1051.5,-168.79 1044.5,-168.79"/>
</g>
<!-- AddlimitInterceptor -->
<g id="node13" class="node">
<title>AddlimitInterceptor</title>
<ellipse fill="#fdb462" stroke="black" cx="395" cy="-66.8" rx="88.04" ry="18"/>
<text text-anchor="middle" x="395" y="-62.6" font-family="Times,serif" font-size="14.00">AddlimitInterceptor</text>
</g>
<!-- AddlimitInterceptor&#45;&gt;AppModule -->
<g id="edge12" class="edge">
<title>AddlimitInterceptor&#45;&gt;AppModule</title>
<path fill="none" stroke="black" d="M395,-85.02C395,-105.17 395,-134.8 395,-134.8 395,-134.8 996.16,-134.8 996.16,-134.8"/>
<polygon fill="black" stroke="black" points="996.16,-138.3 1006.16,-134.8 996.16,-131.3 996.16,-138.3"/>
</g>
<!-- AuthService -->
<g id="node14" class="node">
<title>AuthService</title>
<ellipse fill="#fdb462" stroke="black" cx="229" cy="-66.8" rx="59.11" ry="18"/>
<text text-anchor="middle" x="229" y="-62.6" font-family="Times,serif" font-size="14.00">AuthService</text>
</g>
<!-- AuthService&#45;&gt;AppModule -->
<g id="edge13" class="edge">
<title>AuthService&#45;&gt;AppModule</title>
<path fill="none" stroke="black" d="M229,-84.84C229,-106.46 229,-139.8 229,-139.8 229,-139.8 996.26,-139.8 996.26,-139.8"/>
<polygon fill="black" stroke="black" points="996.26,-143.3 1006.26,-139.8 996.26,-136.3 996.26,-143.3"/>
</g>
<!-- TodosService -->
<g id="node15" class="node">
<title>TodosService</title>
<ellipse fill="#fdb462" stroke="black" cx="88" cy="-66.8" rx="64.27" ry="18"/>
<text text-anchor="middle" x="88" y="-62.6" font-family="Times,serif" font-size="14.00">TodosService</text>
</g>
<!-- TodosService&#45;&gt;AppModule -->
<g id="edge14" class="edge">
<title>TodosService&#45;&gt;AppModule</title>
<path fill="none" stroke="black" d="M88,-84.89C88,-107.93 88,-144.8 88,-144.8 88,-144.8 996.13,-144.8 996.13,-144.8"/>
<polygon fill="black" stroke="black" points="996.13,-148.3 1006.13,-144.8 996.13,-141.3 996.13,-148.3"/>
</g>
</g>
</svg>
